<svg xmlns="http://www.w3.org/2000/svg" xmlns:xlink="http://www.w3.org/1999/xlink" viewBox="0 0 256 256">
	<defs>
		<radialGradient id="gradient">
			<stop offset="00%" stop-color="#F7CA00"/>
			<stop offset="80%" stop-color="#F7C000"/>
			<stop offset="100%" stop-color="#F7A200"/>
		</radialGradient>
	</defs>
  
	<g id="Logo">
		<circle cx="128" cy="128" r="128" fill="#000000" />
		<circle cx="128" cy="128" r="100" fill="url(#gradient)" />
		<path d="M60,170 L155,170 L142,150 L98,150 L127,102 L170,170 L196,170 L127,55z" fill="#000000"/>
	</g>
	
	<g id="Text" fill="#FFFFFF">
		<g id="AIMP">
			<path d="M313,142 L339,142 L381,92 L404,142 L428,142 L398,75 L370,75z M352,125 L396,125 L394,110 L360,110"/>
			<path d="M435,142 L458,142 L472,75 L449,75z"/>
			<path d="M472,142 L495,142 L505,93 L524,142 L553,142 L587,93 L578,142 L601,142 L614,75 L577,74 L539,125 L524,75 L486,75z"/>
			<path d="M612,142 L633,142 L637,122 L675,122 L675,107 L641,107 L645,88 L680,88 L680,75 L626,75z M680,75 L685,75 C710,82 700,116 680,122 L675,122 L675,107 C682,107 686,90 680,88z"/>
		</g>	
		<text x="680" y="180" text-anchor="end" font-family="Tahoma" font-size="32px" style="font-style: italic;">ENJOY THE MUSIC!</text>
	</g>
</svg>